<?xml version="1.0" standalone="no"?>
<!DOCTYPE svg PUBLIC "-//W3C//DTD SVG 20010904//EN"
 "http://www.w3.org/TR/2001/REC-SVG-20010904/DTD/svg10.dtd">
<svg version="1.0" xmlns="http://www.w3.org/2000/svg"
 width="700.000000pt" height="700.000000pt" viewBox="0 0 700.000000 700.000000"
 preserveAspectRatio="xMidYMid meet">
<metadata>
Created by potrace 1.14, written by Peter Selinger 2001-2017
</metadata>
<g transform="translate(0.000000,700.000000) scale(0.100000,-0.100000)"
fill="#000000" stroke="none">
<path d="M3013 6981 c-117 -40 -204 -138 -232 -260 -12 -54 -7 -758 6 -797 51
-153 176 -242 348 -248 l60 -2 1 -78 c1 -50 -3 -79 -10 -80 -6 -2 -69 -13
-141 -24 -186 -30 -293 -57 -453 -113 -147 -52 -393 -164 -462 -209 -84 -56
-193 -120 -199 -116 -3 3 -24 29 -45 60 l-38 55 31 38 c43 54 62 116 60 193
-3 93 -40 170 -120 249 -73 71 -207 101 -304 68 -51 -18 -183 -108 -232 -159
-71 -74 -98 -204 -64 -305 20 -58 80 -143 126 -179 75 -57 190 -77 280 -50 28
9 53 16 56 16 3 0 25 -26 47 -58 l41 -59 -52 -43 c-80 -66 -296 -286 -362
-370 -33 -41 -63 -79 -68 -85 -54 -63 -203 -306 -267 -435 -69 -141 -171 -403
-184 -473 -2 -12 -9 -42 -16 -67 -14 -50 -17 -64 -30 -135 -6 -27 -12 -61 -15
-75 -3 -14 -8 -45 -11 -70 -3 -25 -8 -54 -10 -65 -23 -121 -23 -541 0 -685 3
-14 10 -59 16 -100 47 -306 168 -646 328 -925 39 -67 151 -239 182 -278 269
-343 521 -563 880 -770 264 -152 678 -289 975 -322 32 -4 68 -9 80 -12 11 -2
117 -6 235 -7 197 -3 286 1 410 18 25 4 63 9 85 12 96 13 420 94 450 112 6 4
15 7 20 8 34 6 241 96 354 155 534 277 965 721 1224 1260 30 63 69 152 87 199
17 47 36 96 41 110 25 58 89 313 104 410 20 128 23 149 31 245 14 146 7 477
-11 575 -2 14 -6 41 -9 60 -4 31 -19 118 -30 175 -23 115 -96 348 -147 470
-69 167 -234 473 -261 483 -4 2 -8 8 -8 13 0 8 -26 46 -77 114 -105 138 -327
372 -433 457 -43 35 -44 37 -30 63 8 15 28 43 45 62 28 33 33 35 55 23 42 -22
158 -21 220 2 66 25 146 102 180 173 34 69 34 71 34 155 -1 120 -32 172 -166
273 -128 97 -220 118 -339 80 -66 -21 -153 -103 -195 -183 -25 -48 -29 -66
-29 -140 0 -92 19 -145 72 -202 l25 -26 -41 -56 c-23 -31 -43 -56 -45 -56 -2
0 -46 26 -97 59 -274 171 -633 317 -899 364 -102 19 -158 29 -175 32 -18 4
-20 12 -19 86 l1 82 47 3 c56 4 120 20 160 41 56 29 123 102 152 166 l29 62 3
365 c2 239 -1 380 -8 410 -26 111 -99 202 -197 248 l-58 27 -470 2 c-430 2
-474 1 -522 -16z"/>
</g>
</svg>
